<?xml version="1.0" encoding="UTF-8"?>
<svg xmlns="http://www.w3.org/2000/svg" xmlns:xlink="http://www.w3.org/1999/xlink" width="62pt" height="27pt" viewBox="0 0 62 27" version="1.1">
<g id="surface1">
<path style=" stroke:none;fill-rule:nonzero;fill:rgb(4.508972%,23.234558%,41.468811%);fill-opacity:1;" d="M 57.609375 24.609375 L 42.136719 24.609375 C 43.089844 25.386719 44.1875 25.96875 45.355469 26.371094 L 54.386719 26.371094 C 55.554688 25.96875 56.65625 25.386719 57.609375 24.609375 "/>
<path style=" stroke:none;fill-rule:nonzero;fill:rgb(4.508972%,23.234558%,41.468811%);fill-opacity:1;" d="M 15.015625 23.726562 L 21.71875 23.726562 L 21.730469 23.695312 L 21.710938 23.695312 L 22.269531 21.964844 L 15.679688 21.964844 L 15.015625 23.726562 "/>
<path style=" stroke:none;fill-rule:nonzero;fill:rgb(4.508972%,23.234558%,41.468811%);fill-opacity:1;" d="M 14.707031 24.609375 L 14.039062 26.371094 L 20.871094 26.371094 L 21.453125 24.609375 L 14.707031 24.609375 "/>
<path style=" stroke:none;fill-rule:nonzero;fill:rgb(4.508972%,23.234558%,41.468811%);fill-opacity:1;" d="M 0.394531 26.371094 L 6.796875 26.371094 L 6.796875 24.609375 L 0.394531 24.609375 L 0.394531 26.371094 "/>
<path style=" stroke:none;fill-rule:nonzero;fill:rgb(4.508972%,23.234558%,41.468811%);fill-opacity:1;" d="M 6.796875 21.964844 L 0.394531 21.964844 L 0.394531 23.726562 L 6.796875 23.726562 L 6.796875 21.964844 "/>
<path style=" stroke:none;fill-rule:nonzero;fill:rgb(4.508972%,23.234558%,41.468811%);fill-opacity:1;" d="M 6.796875 19.320312 L 0.394531 19.320312 L 0.394531 21.082031 L 6.796875 21.082031 L 6.796875 19.320312 "/>
<path style=" stroke:none;fill-rule:nonzero;fill:rgb(4.508972%,23.234558%,41.468811%);fill-opacity:1;" d="M 6.796875 16.675781 L 0.394531 16.675781 L 0.394531 18.4375 L 6.796875 18.4375 L 6.796875 16.675781 "/>
<path style=" stroke:none;fill-rule:nonzero;fill:rgb(4.508972%,23.234558%,41.468811%);fill-opacity:1;" d="M 6.796875 8.738281 L 0.394531 8.738281 L 0.394531 10.503906 L 6.796875 10.503906 L 6.796875 8.738281 "/>
<path style=" stroke:none;fill-rule:nonzero;fill:rgb(4.508972%,23.234558%,41.468811%);fill-opacity:1;" d="M 6.796875 6.089844 L 0.394531 6.089844 L 0.394531 7.851562 L 6.796875 7.851562 L 6.796875 6.089844 "/>
<path style=" stroke:none;fill-rule:nonzero;fill:rgb(4.508972%,23.234558%,41.468811%);fill-opacity:1;" d="M 0.394531 2.566406 L 19.964844 2.566406 L 19.964844 0.804688 L 0.394531 0.804688 L 0.394531 2.566406 "/>
<path style=" stroke:none;fill-rule:nonzero;fill:rgb(4.508972%,23.234558%,41.468811%);fill-opacity:1;" d="M 0.394531 5.210938 L 19.964844 5.210938 L 19.964844 3.449219 L 0.394531 3.449219 L 0.394531 5.210938 "/>
<path style=" stroke:none;fill-rule:nonzero;fill:rgb(4.508972%,23.234558%,41.468811%);fill-opacity:1;" d="M 26.332031 8.738281 L 20.558594 8.738281 L 19.890625 10.503906 L 25.789062 10.503906 L 26.332031 8.738281 "/>
<path style=" stroke:none;fill-rule:nonzero;fill:rgb(4.508972%,23.234558%,41.468811%);fill-opacity:1;" d="M 22.816406 2.566406 L 30.785156 2.566406 L 30.101562 0.804688 L 23.484375 0.804688 L 22.816406 2.566406 "/>
<path style=" stroke:none;fill-rule:nonzero;fill:rgb(4.508972%,23.234558%,41.468811%);fill-opacity:1;" d="M 21.839844 5.210938 L 31.78125 5.210938 L 31.101562 3.449219 L 22.507812 3.449219 L 21.839844 5.210938 "/>
<path style=" stroke:none;fill-rule:nonzero;fill:rgb(4.508972%,23.234558%,41.468811%);fill-opacity:1;" d="M 27.148438 7.859375 L 32.78125 7.859375 L 32.097656 6.09375 L 21.53125 6.09375 L 20.863281 7.859375 L 26.582031 7.859375 L 26.828125 7.050781 L 26.898438 7.050781 L 27.148438 7.859375 "/>
<path style=" stroke:none;fill-rule:nonzero;fill:rgb(4.508972%,23.234558%,41.468811%);fill-opacity:1;" d="M 27.9375 10.503906 L 33.777344 10.503906 L 33.09375 8.738281 L 27.398438 8.738281 L 27.9375 10.503906 "/>
<path style=" stroke:none;fill-rule:nonzero;fill:rgb(4.508972%,23.234558%,41.468811%);fill-opacity:1;" d="M 28.730469 13.144531 L 34.773438 13.144531 L 34.09375 11.382812 L 28.1875 11.382812 L 28.730469 13.144531 "/>
<path style=" stroke:none;fill-rule:nonzero;fill:rgb(4.508972%,23.234558%,41.468811%);fill-opacity:1;" d="M 29.519531 15.785156 L 35.773438 15.785156 L 35.089844 14.023438 L 28.976562 14.023438 L 29.519531 15.785156 "/>
<path style=" stroke:none;fill-rule:nonzero;fill:rgb(4.508972%,23.234558%,41.468811%);fill-opacity:1;" d="M 16.964844 18.4375 L 36.769531 18.4375 L 36.085938 16.675781 L 17.632812 16.675781 L 16.964844 18.4375 "/>
<path style=" stroke:none;fill-rule:nonzero;fill:rgb(4.508972%,23.234558%,41.468811%);fill-opacity:1;" d="M 15.988281 21.082031 L 37.765625 21.082031 L 37.082031 19.320312 L 16.65625 19.320312 L 15.988281 21.082031 "/>
<path style=" stroke:none;fill-rule:nonzero;fill:rgb(4.508972%,23.234558%,41.468811%);fill-opacity:1;" d="M 32.0625 23.726562 L 38.765625 23.726562 L 38.082031 21.964844 L 31.472656 21.964844 L 32.0625 23.726562 "/>
<path style=" stroke:none;fill-rule:nonzero;fill:rgb(4.508972%,23.234558%,41.468811%);fill-opacity:1;" d="M 32.3125 24.609375 L 32.894531 26.371094 L 39.761719 26.371094 L 39.078125 24.609375 L 32.3125 24.609375 "/>
<path style=" stroke:none;fill-rule:nonzero;fill:rgb(4.508972%,23.234558%,41.468811%);fill-opacity:1;" d="M 39.03125 2.566406 L 45.433594 2.566406 L 45.433594 0.804688 L 39.03125 0.804688 L 39.03125 2.566406 "/>
<path style=" stroke:none;fill-rule:nonzero;fill:rgb(4.508972%,23.234558%,41.468811%);fill-opacity:1;" d="M 39.03125 5.210938 L 45.433594 5.210938 L 45.433594 3.449219 L 39.03125 3.449219 L 39.03125 5.210938 "/>
<path style=" stroke:none;fill-rule:nonzero;fill:rgb(4.508972%,23.234558%,41.468811%);fill-opacity:1;" d="M 39.03125 7.859375 L 45.433594 7.859375 L 45.433594 6.09375 L 39.03125 6.09375 L 39.03125 7.859375 "/>
<path style=" stroke:none;fill-rule:nonzero;fill:rgb(4.508972%,23.234558%,41.468811%);fill-opacity:1;" d="M 39.03125 10.503906 L 45.433594 10.503906 L 45.433594 8.738281 L 39.03125 8.738281 L 39.03125 10.503906 "/>
<path style=" stroke:none;fill-rule:nonzero;fill:rgb(4.508972%,23.234558%,41.468811%);fill-opacity:1;" d="M 39.03125 13.144531 L 45.433594 13.144531 L 45.433594 11.378906 L 39.03125 11.378906 L 39.03125 13.144531 "/>
<path style=" stroke:none;fill-rule:nonzero;fill:rgb(4.508972%,23.234558%,41.468811%);fill-opacity:1;" d="M 39.03125 15.785156 L 45.433594 15.785156 L 45.433594 14.023438 L 39.03125 14.023438 L 39.03125 15.785156 "/>
<path style=" stroke:none;fill-rule:nonzero;fill:rgb(4.508972%,23.234558%,41.468811%);fill-opacity:1;" d="M 39.082031 18.4375 L 45.554688 18.4375 C 45.472656 17.980469 45.433594 17.492188 45.433594 16.980469 L 45.433594 16.675781 L 39.03125 16.675781 L 39.03125 17.507812 C 39.03125 17.832031 39.054688 18.132812 39.082031 18.4375 "/>
<path style=" stroke:none;fill-rule:nonzero;fill:rgb(4.508972%,23.234558%,41.468811%);fill-opacity:1;" d="M 39.652344 21.082031 L 46.957031 21.082031 C 46.386719 20.640625 46.003906 20.035156 45.757812 19.320312 L 39.1875 19.320312 C 39.289062 19.949219 39.441406 20.539062 39.652344 21.082031 "/>
<path style=" stroke:none;fill-rule:nonzero;fill:rgb(4.508972%,23.234558%,41.468811%);fill-opacity:1;" d="M 59.734375 21.964844 L 40.015625 21.964844 C 40.359375 22.621094 40.785156 23.207031 41.265625 23.726562 L 58.484375 23.726562 C 58.964844 23.207031 59.390625 22.621094 59.734375 21.964844 "/>
<path style=" stroke:none;fill-rule:nonzero;fill:rgb(4.508972%,23.234558%,41.468811%);fill-opacity:1;" d="M 60.566406 19.320312 L 53.992188 19.320312 C 53.75 20.035156 53.359375 20.640625 52.789062 21.082031 L 60.097656 21.082031 C 60.308594 20.539062 60.460938 19.949219 60.566406 19.320312 "/>
<path style=" stroke:none;fill-rule:nonzero;fill:rgb(4.508972%,23.234558%,41.468811%);fill-opacity:1;" d="M 54.320312 2.566406 L 60.722656 2.566406 L 60.722656 0.804688 L 54.320312 0.804688 L 54.320312 2.566406 "/>
<path style=" stroke:none;fill-rule:nonzero;fill:rgb(4.508972%,23.234558%,41.468811%);fill-opacity:1;" d="M 54.320312 5.210938 L 60.722656 5.210938 L 60.722656 3.449219 L 54.320312 3.449219 L 54.320312 5.210938 "/>
<path style=" stroke:none;fill-rule:nonzero;fill:rgb(4.508972%,23.234558%,41.468811%);fill-opacity:1;" d="M 54.320312 7.859375 L 60.722656 7.859375 L 60.722656 6.09375 L 54.320312 6.09375 L 54.320312 7.859375 "/>
<path style=" stroke:none;fill-rule:nonzero;fill:rgb(4.508972%,23.234558%,41.468811%);fill-opacity:1;" d="M 54.320312 10.503906 L 60.722656 10.503906 L 60.722656 8.738281 L 54.320312 8.738281 L 54.320312 10.503906 "/>
<path style=" stroke:none;fill-rule:nonzero;fill:rgb(4.508972%,23.234558%,41.468811%);fill-opacity:1;" d="M 54.320312 13.144531 L 60.722656 13.144531 L 60.722656 11.378906 L 54.320312 11.378906 L 54.320312 13.144531 "/>
<path style=" stroke:none;fill-rule:nonzero;fill:rgb(4.508972%,23.234558%,41.468811%);fill-opacity:1;" d="M 54.320312 15.785156 L 60.722656 15.785156 L 60.722656 14.023438 L 54.320312 14.023438 L 54.320312 15.785156 "/>
<path style=" stroke:none;fill-rule:nonzero;fill:rgb(4.508972%,23.234558%,41.468811%);fill-opacity:1;" d="M 60.722656 17.507812 L 60.722656 16.675781 L 54.320312 16.675781 L 54.320312 16.980469 C 54.320312 17.492188 54.28125 17.980469 54.199219 18.4375 L 60.671875 18.4375 C 60.695312 18.132812 60.722656 17.832031 60.722656 17.507812 "/>
<path style=" stroke:none;fill-rule:nonzero;fill:rgb(4.508972%,23.234558%,41.468811%);fill-opacity:1;" d="M 0.394531 14.023438 L 0.394531 15.785156 L 24.210938 15.785156 L 24.753906 14.023438 L 0.394531 14.023438 "/>
<path style=" stroke:none;fill-rule:nonzero;fill:rgb(4.508972%,23.234558%,41.468811%);fill-opacity:1;" d="M 0.394531 11.382812 L 0.394531 13.144531 L 25 13.144531 L 25.542969 11.382812 L 0.394531 11.382812 "/>
</g>
</svg>
