<?xml version="1.0" encoding="UTF-8"?>
<svg xmlns="http://www.w3.org/2000/svg" xmlns:xlink="http://www.w3.org/1999/xlink" width="85pt" height="33pt" viewBox="0 0 85 33" version="1.1">
<defs>
<clipPath id="clip1">
  <path d="M 56 0.628906 L 84 0.628906 L 84 31 L 56 31 Z M 56 0.628906 "/>
</clipPath>
<clipPath id="clip2">
  <path d="M 141 0.628906 L 148 0.628906 L 148 12 L 141 12 Z M 141 0.628906 "/>
</clipPath>
<clipPath id="clip3">
  <path d="M 249 19 L 253.71875 19 L 253.71875 30 L 249 30 Z M 249 19 "/>
</clipPath>
</defs>
<g id="surface1">
<path style=" stroke:none;fill-rule:nonzero;fill:rgb(12.612915%,33.842468%,68.222046%);fill-opacity:1;" d="M 0 29.792969 L 15.046875 29.792969 C 19.027344 29.792969 22.484375 28.9375 24.933594 26.777344 C 27.386719 24.617188 28.890625 21.125 28.890625 15.703125 C 28.890625 9.878906 27.488281 6.339844 25.152344 4.246094 C 22.820312 2.148438 19.476562 1.445312 15.488281 1.445312 L 0 1.445312 L 0 7.566406 L 13.121094 7.566406 C 15.109375 7.554688 16.46875 8.261719 17.234375 9.625 C 18.003906 10.976562 18.234375 12.90625 18.238281 15.410156 C 18.234375 17.835938 18.023438 19.738281 17.273438 21.09375 C 16.519531 22.457031 15.167969 23.183594 13.160156 23.171875 L 10.171875 23.171875 L 10.171875 13.140625 L 0 13.140625 L 0 29.792969 "/>
<path style=" stroke:none;fill-rule:nonzero;fill:rgb(12.612915%,33.842468%,68.222046%);fill-opacity:1;" d="M 31.101562 29.792969 L 41.273438 29.792969 L 41.273438 19.507812 L 53.945312 19.507812 L 53.945312 13.140625 L 41.273438 13.140625 L 41.273438 7.566406 L 53.945312 7.566406 L 53.945312 1.445312 L 31.101562 1.445312 L 31.101562 29.792969 "/>
<g clip-path="url(#clip1)" clip-rule="nonzero">
<path style=" stroke:none;fill-rule:nonzero;fill:rgb(12.612915%,33.842468%,68.222046%);fill-opacity:1;" d="M 60.949219 4.523438 C 57.941406 6.898438 56.042969 10.433594 56.039062 15.203125 C 56.042969 20.296875 57.871094 24.039062 60.835938 26.539062 C 63.796875 29.039062 67.925781 30.289062 72.53125 30.289062 C 76.847656 30.289062 80.257812 29.855469 83.84375 28.789062 L 83.84375 15.710938 L 75.203125 15.710938 L 75.203125 23.328125 L 75.011719 23.402344 C 74.285156 23.679688 73.378906 23.667969 72.613281 23.671875 C 70.386719 23.675781 68.796875 22.746094 67.824219 21.300781 C 66.84375 19.859375 66.453125 17.9375 66.453125 15.90625 C 66.449219 13.210938 67.363281 11.097656 68.988281 9.6875 C 70.609375 8.273438 72.90625 7.566406 75.628906 7.566406 C 78.410156 7.566406 80.601562 8.191406 82.164062 9.015625 L 82.164062 1.960938 C 79.59375 1.335938 77.636719 0.949219 72.53125 0.949219 C 68.085938 0.949219 63.953125 2.148438 60.949219 4.523438 "/>
</g>
</g>
</svg>
